<svg xmlns="http://www.w3.org/2000/svg" viewBox="0 0 128 128" role="img" aria-label="Hivecode">
  <defs>
    <linearGradient id="bg" x1="0" y1="0" x2="0" y2="128" gradientUnits="userSpaceOnUse">
      <stop offset="0" stop-color="#17191F"/>
      <stop offset="1" stop-color="#0B0C0F"/>
    </linearGradient>
    <radialGradient id="glow" cx="64" cy="60" r="52" gradientUnits="userSpaceOnUse">
      <stop offset="0" stop-color="#7B6CEB" stop-opacity=".55"/>
      <stop offset="1" stop-color="#7B6CEB" stop-opacity="0"/>
    </radialGradient>
    <linearGradient id="spark" x1="8" y1="8" x2="92" y2="92" gradientUnits="userSpaceOnUse">
      <stop offset="0" stop-color="#4F90FF"/>
      <stop offset=".5" stop-color="#A77FE0"/>
      <stop offset="1" stop-color="#E0727E"/>
    </linearGradient>
  </defs>
  <rect width="128" height="128" rx="28" fill="url(#bg)"/>
  <rect width="128" height="128" rx="28" fill="url(#glow)"/>
  <g transform="translate(21,20) scale(0.86)" fill="none">
    <g stroke="url(#spark)" stroke-width="5.2" stroke-linecap="round">
      <g><path d="M50 7 C 72 9 86 27 71 43"/><circle cx="50" cy="7" r="3.4" fill="url(#spark)" stroke="none"/></g>
      <g transform="rotate(120 50 50)"><path d="M50 7 C 72 9 86 27 71 43"/><circle cx="50" cy="7" r="3.4" fill="url(#spark)" stroke="none"/></g>
      <g transform="rotate(240 50 50)"><path d="M50 7 C 72 9 86 27 71 43"/><circle cx="50" cy="7" r="3.4" fill="url(#spark)" stroke="none"/></g>
    </g>
    <polygon points="69,50 59.5,66.5 40.5,66.5 31,50 40.5,33.5 59.5,33.5" fill="url(#spark)"/>
  </g>
</svg>
